# xmcd
#
# Track frame offsets:
#	150
#	19037
#	37720
#	62532
#	86689
#	109633
#	130601
#	158406
#	178222
#	199102
#
# Disc length: 2996 seconds
#
# Revision: 1
# Processed by: cddbd v1.5.2PL0 Copyright (c) Steve Scherf et al.
# Submitted via: EZCDAudioConverter 8.0.2.1
#
DISCID=6f0bb20a
DTITLE=Various Artist - Điều Đó Không Thật Đẹp Sao
DYEAR=2002
DGENRE=Easy Listening
TTITLE0=Thanh Trúc - Phiêu bồng
TTITLE1=Hàn Thái Tú - Vì sao lẻ loi
TTITLE2=Mỹ Tâm - Hát cho người ở lại
TTITLE3=Lâm Hùng - Tình tiếc nuối
TTITLE4=Đoan Trang - Đừng hỏi vì sao
TTITLE5=Châu Gia Kiệt - Tình như mây khói
TTITLE6=Mỹ Tâm - Tình vẫn chưa yên
TTITLE7=Hàn Thái Tú - Rêu xanh một màu
TTITLE8=Lâm Vũ - Hành phúc nơi nào
TTITLE9=Thanh Trúc - Điều Đó Không Thật Đẹp Sao 
EXTD=
EXTT0=
EXTT1=
EXTT2=
EXTT3=
EXTT4=
EXTT5=
EXTT6=
EXTT7=
EXTT8=
EXTT9=
PLAYORDER=
